<?xml version="1.0" encoding="UTF-8" standalone="no"?>
<!DOCTYPE svg PUBLIC "-//W3C//DTD SVG 1.1//EN" "http://www.w3.org/Graphics/SVG/1.1/DTD/svg11.dtd">
<svg width="100%" height="100%" viewBox="0 0 128 40" version="1.1" xmlns="http://www.w3.org/2000/svg" xmlns:xlink="http://www.w3.org/1999/xlink" xml:space="preserve" xmlns:serif="http://www.serif.com/" style="fill-rule:evenodd;clip-rule:evenodd;stroke-linejoin:round;stroke-miterlimit:2;">
    <g transform="matrix(1,0,0,1,0,-44)">
        <g transform="matrix(1,0,0,1,-185.5,25.5)">
            <path d="M309.5,58.5L189.5,58.5C187.3,58.5 185.5,56.7 185.5,54.5L185.5,22.5C185.5,20.3 187.3,18.5 189.5,18.5L309.5,18.5C311.7,18.5 313.5,20.3 313.5,22.5L313.5,54.5C313.5,56.7 311.7,58.5 309.5,58.5Z" style="fill-rule:nonzero;"/>
        </g>
        <g transform="matrix(1,0,0,1,-185.5,25.5)">
            <path d="M195.3,48.8L195.3,27.6C195.3,27 195.8,26.5 196.3,26.5C196.8,26.5 197,26.6 197.3,26.8L216.6,37.4C217,37.6 217.2,37.9 217.2,38.2C217.2,38.5 217,38.8 216.6,39L197.3,49.6C197.1,49.7 196.8,49.9 196.3,49.9C195.8,49.9 195.3,49.4 195.3,48.8Z" style="fill:url(#_Linear1);"/>
        </g>
        <g transform="matrix(1,0,0,1,-185.5,25.5)">
            <path d="M207.8,38.2L196.1,26.5L196.3,26.5C196.8,26.5 197,26.6 197.3,26.8L211.5,34.6L207.8,38.2Z" style="fill:url(#_Linear2);"/>
        </g>
        <g transform="matrix(1,0,0,1,-185.5,25.5)">
            <path d="M211.4,41.7L207.8,38.1L211.5,34.4L216.6,37.2C217,37.4 217.2,37.7 217.2,38C217.2,38.3 217,38.6 216.6,38.8L211.4,41.7Z" style="fill:url(#_Linear3);"/>
        </g>
        <g transform="matrix(1,0,0,1,-185.5,25.5)">
            <path d="M196.2,49.7L207.8,38.1L211.4,41.7L197.3,49.4C197,49.6 196.8,49.7 196.2,49.7Z" style="fill:url(#_Linear4);"/>
        </g>
        <g transform="matrix(1,0,0,1,-185.5,25.5)">
            <path d="M256.6,52.4C256.1,52 255.7,51.3 255.5,50.9L257.1,50.2C257.2,50.4 257.4,50.7 257.6,51C258,51.4 258.6,51.8 259.2,51.8C259.8,51.8 260.5,51.5 260.9,51C261.2,50.5 261.4,50 261.4,49.3L261.4,48.7C260.2,50.2 257.7,50 256.3,48.4C254.8,46.8 254.8,44.1 256.3,42.5C257.8,41 260,40.8 261.3,42.2L261.3,41.5L263,41.5L263,49C263,50.9 262.3,52 261.4,52.7C260.8,53.2 259.9,53.4 259.1,53.4C258.2,53.3 257.3,53 256.6,52.4ZM298.5,52.8L300.2,48.8L297.2,41.9L298.9,41.9L301,46.8L303.1,41.9L304.8,41.9L300.2,52.8L298.5,52.8ZM290.4,49C289.9,48.5 289.7,47.8 289.7,47.1C289.7,46.5 289.9,45.9 290.3,45.5C291,44.8 292,44.5 293.1,44.5C293.8,44.5 294.4,44.6 294.9,44.9C294.9,43.7 293.9,43.2 293.1,43.2C292.4,43.2 291.7,43.6 291.4,44.3L289.9,43.7C290.2,43 291,41.7 293,41.7C294,41.7 295,42 295.6,42.7C296.2,43.4 296.4,44.2 296.4,45.3L296.4,49.5L294.7,49.5L294.7,48.8C294.5,49.1 294.1,49.3 293.8,49.5C293.4,49.7 292.9,49.8 292.4,49.8C291.8,49.7 290.9,49.5 290.4,49ZM237.1,45.4C237.1,43.4 238.6,41.2 241.3,41.2C243.9,41.2 245.5,43.4 245.5,45.4C245.5,47.4 244,49.6 241.3,49.6C238.6,49.6 237.1,47.4 237.1,45.4ZM246.1,45.4C246.1,43.4 247.6,41.2 250.3,41.2C252.9,41.2 254.5,43.4 254.5,45.4C254.5,47.4 253,49.6 250.3,49.6C247.7,49.6 246.1,47.4 246.1,45.4ZM225.8,47.6C223.3,45.1 223.4,41 225.9,38.4C227.2,37.1 228.8,36.5 230.5,36.5C232.1,36.5 233.7,37.1 234.9,38.3L233.7,39.6C231.9,37.8 229,37.9 227.3,39.7C225.5,41.6 225.5,44.5 227.3,46.4C229.1,48.3 232.1,48.4 233.9,46.5C234.5,45.9 234.7,45.1 234.8,44.3L230.6,44.3L230.6,42.5L236.5,42.5C236.6,42.9 236.6,43.4 236.6,43.9C236.6,45.4 236,46.9 235,47.9C233.9,49 232.3,49.6 230.7,49.6C228.9,49.5 227.1,48.9 225.8,47.6ZM268.1,48.3C266.6,46.7 266.6,44 268.1,42.3C269.6,40.7 272.1,40.7 273.5,42.3C274,42.8 274.3,43.5 274.6,44.2L269.1,46.5C269.4,47.2 270.1,47.8 271.1,47.8C272,47.8 272.6,47.5 273.2,46.6L274.7,47.6C274.5,47.8 274.3,48 274.2,48.2C272.5,49.9 269.6,49.9 268.1,48.3ZM278.5,49.5L278.5,38.4L282.1,38.4C284.2,38.4 285.9,39.9 285.9,41.7C285.9,43.5 284.4,45 282.5,45L280.3,45L280.3,49.4L278.5,49.4L278.5,49.5ZM286.9,49.5L286.9,38.4L288.6,38.4L288.6,49.5L286.9,49.5ZM264.3,49.3L264.3,36.9L266.1,36.9L266.1,49.3L264.3,49.3ZM294.8,46.2C294.4,45.9 293.8,45.8 293.2,45.8C292,45.8 291.3,46.4 291.3,47.1C291.3,47.8 292,48.2 292.7,48.2C293.7,48.2 294.8,47.4 294.8,46.2ZM243.6,45.4C243.6,44.2 242.8,42.9 241.3,42.9C239.8,42.9 239,44.2 239,45.4C239,46.6 239.8,47.9 241.3,47.9C242.7,47.9 243.6,46.6 243.6,45.4ZM252.6,45.4C252.6,44.2 251.8,42.9 250.3,42.9C248.8,42.9 248,44.2 248,45.4C248,46.6 248.8,47.9 250.3,47.9C251.8,47.9 252.6,46.6 252.6,45.4ZM261.5,46.1C261.5,46 261.5,45.9 261.6,45.8L261.6,44.9C261.6,44.8 261.5,44.6 261.5,44.5C261.2,43.5 260.3,42.8 259.4,42.8C258.2,42.8 257.2,44 257.2,45.3C257.2,46.7 258.2,47.8 259.5,47.8C260.3,47.9 261.1,47.2 261.5,46.1ZM268.8,45.2L272.5,43.6C272.1,42.9 271.5,42.7 271,42.7C269.5,42.8 268.6,44.4 268.8,45.2ZM284.1,41.8C284.1,40.8 283.3,40.1 282.2,40.1L280.2,40.1L280.2,43.6L282.3,43.6C283.3,43.6 284.1,42.8 284.1,41.8Z" style="fill:white;"/>
        </g>
        <g transform="matrix(1,0,0,1,-185.5,25.5)">
            <path d="M299.8,50.8L299.7,50.8L299.7,50.7L299.8,50.7L299.7,50.7L299.7,50.8L299.8,50.8Z" style="fill:white;"/>
        </g>
        <g transform="matrix(1,0,0,1,-185.5,25.5)">
            <path d="M299.8,50.8L299.8,50.8ZM299.8,50.7L299.8,50.7Z" style="fill:white;"/>
        </g>
        <g transform="matrix(1,0,0,1,-185.5,25.5)">
            <path d="M299.8,50.8L299.8,50.7L299.8,50.8Z" style="fill:white;"/>
        </g>
        <g transform="matrix(1,0,0,1,-185.5,25.5)">
            <path d="M299.8,50.7L299.8,50.7Z" style="fill:white;"/>
        </g>
        <g transform="matrix(1,0,0,1,-185.5,25.5)">
            <path d="M299.8,50.7L299.8,50.8L299.8,50.7Z" style="fill:white;"/>
        </g>
        <g transform="matrix(1,0,0,1,-185.5,25.5)">
            <path d="M299.8,50.8L299.8,50.7L299.8,50.8Z" style="fill:white;"/>
        </g>
        <g transform="matrix(1,0,0,1,-185.5,25.5)">
            <path d="M299.8,50.8L299.8,50.8ZM299.8,50.8C299.8,50.7 299.8,50.7 299.8,50.8Z" style="fill:white;"/>
        </g>
        <g transform="matrix(1,0,0,1,-185.5,25.5)">
            <path d="M299.9,50.8L299.9,50.8ZM299.9,50.7L299.9,50.7ZM299.9,50.8C299.9,50.7 299.9,50.7 299.9,50.8Z" style="fill:white;"/>
        </g>
        <g transform="matrix(1,0,0,1,-185.5,25.5)">
            <path d="M299.9,50.7L299.9,50.8L299.9,50.7Z" style="fill:white;"/>
        </g>
        <g transform="matrix(1,0,0,1,-185.5,25.5)">
            <path d="M299.9,50.8L299.9,50.7L299.9,50.8Z" style="fill:white;"/>
        </g>
        <g transform="matrix(1,0,0,1,-185.5,25.5)">
            <path d="M299.9,50.8L299.9,50.8ZM299.9,50.7L299.9,50.7Z" style="fill:white;"/>
        </g>
        <g transform="matrix(1,0,0,1,-185.5,25.5)">
            <path d="M299.9,50.8L299.9,50.8Z" style="fill:white;"/>
        </g>
        <g transform="matrix(1,0,0,1,-185.5,25.5)">
            <path d="M300,50.8L300,50.8ZM300,50.7C300,50.8 300,50.8 300,50.7C300,50.8 299.9,50.8 300,50.7C299.9,50.7 300,50.7 300,50.7Z" style="fill:white;"/>
        </g>
        <g transform="matrix(1,0,0,1,-185.5,25.5)">
            <path d="M300,50.8L300,50.7L300,50.8L300,50.7L300,50.8L300,50.7L300,50.8Z" style="fill:white;"/>
        </g>
        <g transform="matrix(1,0,0,1,-185.5,25.5)">
            <path d="M300,50.7L300,50.7Z" style="fill:white;"/>
        </g>
        <g transform="matrix(1,0,0,1,-185.5,25.5)">
            <path d="M300,50.8L300,50.8Z" style="fill:white;"/>
        </g>
        <g transform="matrix(1,0,0,1,-185.5,25.5)">
            <path d="M300.1,50.7L300,50.7L300.1,50.7L300.1,50.8L300.1,50.7Z" style="fill:white;"/>
        </g>
        <g transform="matrix(1,0,0,1,-185.5,25.5)">
            <path d="M300.1,50.8L300.1,50.7L300.1,50.8Z" style="fill:white;"/>
        </g>
        <g transform="matrix(1,0,0,1,-185.5,25.5)">
            <path d="M300.1,50.8L300.1,50.8ZM300.1,50.7L300.1,50.7Z" style="fill:white;"/>
        </g>
        <g transform="matrix(1,0,0,1,-185.5,25.5)">
            <path d="M224.4,28.6C224.4,26.8 225.7,25.7 227.3,25.7C228.4,25.7 229.1,26.2 229.6,26.9L228.8,27.4C228.5,27 228,26.7 227.3,26.7C226.2,26.7 225.4,27.5 225.4,28.7C225.4,29.9 226.2,30.7 227.3,30.7C227.9,30.7 228.4,30.4 228.6,30.2L228.6,29.3L227,29.3L227,28.4L229.7,28.4L229.7,30.5C229.2,31.1 228.4,31.5 227.4,31.5C225.7,31.5 224.4,30.3 224.4,28.6Z" style="fill:white;fill-rule:nonzero;"/>
        </g>
        <g transform="matrix(1,0,0,1,-185.5,25.5)">
            <path d="M230.9,31.4L230.9,25.8L234.7,25.8L234.7,26.7L231.8,26.7L231.8,28.1L234.6,28.1L234.6,29L231.8,29L231.8,30.6L234.7,30.6L234.7,31.5L230.9,31.4Z" style="fill:white;fill-rule:nonzero;"/>
        </g>
        <g transform="matrix(1,0,0,1,-185.5,25.5)">
            <path d="M237.5,31.4L237.5,26.7L235.8,26.7L235.8,25.8L240.2,25.8L240.2,26.7L238.5,26.7L238.5,31.4L237.5,31.4Z" style="fill:white;fill-rule:nonzero;"/>
        </g>
        <g transform="matrix(1,0,0,1,-185.5,25.5)">
            <rect x="243.6" y="25.8" width="1" height="5.6" style="fill:white;fill-rule:nonzero;"/>
        </g>
        <g transform="matrix(1,0,0,1,-185.5,25.5)">
            <path d="M247.3,31.4L247.3,26.7L245.6,26.7L245.6,25.8L250,25.8L250,26.7L248.3,26.7L248.3,31.4L247.3,31.4Z" style="fill:white;fill-rule:nonzero;"/>
        </g>
        <g transform="matrix(1,0,0,1,-185.5,25.5)">
            <path d="M253.2,28.6C253.2,26.9 254.4,25.7 256.1,25.7C257.8,25.7 259,26.9 259,28.6C259,30.3 257.8,31.5 256.1,31.5C254.4,31.5 253.2,30.2 253.2,28.6ZM257.9,28.6C257.9,27.4 257.2,26.6 256,26.6C254.9,26.6 254.1,27.5 254.1,28.6C254.1,29.8 254.8,30.6 256,30.6C257.2,30.6 257.9,29.7 257.9,28.6Z" style="fill:white;fill-rule:nonzero;"/>
        </g>
        <g transform="matrix(1,0,0,1,-185.5,25.5)">
            <path d="M264,31.4L261.1,27.4L261.1,31.4L260.1,31.4L260.1,25.8L261.1,25.8L264,29.7L264,25.8L265,25.8L265,31.4L264,31.4Z" style="fill:white;fill-rule:nonzero;"/>
        </g>
    </g>
    <defs>
        <linearGradient id="_Linear1" x1="0" y1="0" x2="1" y2="0" gradientUnits="userSpaceOnUse" gradientTransform="matrix(5.5982,22.9909,-22.9909,5.5982,201.767,25.0736)"><stop offset="0" style="stop-color:rgb(0,104,132);stop-opacity:1"/><stop offset="1" style="stop-color:rgb(138,209,208);stop-opacity:1"/></linearGradient>
        <linearGradient id="_Linear2" x1="0" y1="0" x2="1" y2="0" gradientUnits="userSpaceOnUse" gradientTransform="matrix(15.256,8.2475,-8.2475,15.256,194.941,28.3438)"><stop offset="0" style="stop-color:rgb(36,187,182);stop-opacity:1"/><stop offset="1" style="stop-color:rgb(219,230,146);stop-opacity:1"/></linearGradient>
        <linearGradient id="_Linear3" x1="0" y1="0" x2="1" y2="0" gradientUnits="userSpaceOnUse" gradientTransform="matrix(4.86699e-16,-7.9484,7.9484,4.86699e-16,212.494,42.1201)"><stop offset="0" style="stop-color:rgb(252,192,114);stop-opacity:1"/><stop offset="1" style="stop-color:rgb(245,138,91);stop-opacity:1"/></linearGradient>
        <linearGradient id="_Linear4" x1="0" y1="0" x2="1" y2="0" gradientUnits="userSpaceOnUse" gradientTransform="matrix(12.0517,-12.2652,12.2652,12.0517,197.895,51.7691)"><stop offset="0" style="stop-color:rgb(113,43,143);stop-opacity:1"/><stop offset="1" style="stop-color:rgb(234,29,39);stop-opacity:1"/></linearGradient>
    </defs>
</svg>
